{
    "asset" : {
        "generator" : "Khronos glTF Blender I/O v3.2.43",
        "version" : "2.0"
    },
    "scene" : 0,
    "scenes" : [
        {
            "name" : "Scene",
            "nodes" : [
                0,
                1,
                2,
                3,
                4,
                5,
                6,
                7,
                8,
                9
            ]
        }
    ],
    "nodes" : [
        {
            "mesh" : 0,
            "name" : "Object_6"
        },
        {
            "mesh" : 1,
            "name" : "Object_7"
        },
        {
            "mesh" : 2,
            "name" : "Object_8"
        },
        {
            "mesh" : 3,
            "name" : "Object_9"
        },
        {
            "mesh" : 4,
            "name" : "Object_10"
        },
        {
            "mesh" : 5,
            "name" : "Cintre",
            "translation" : [
                0.00013008333917241544,
                7.9576239585876465,
                1.1797057390213013
            ]
        },
        {
            "mesh" : 6,
            "name" : "Fourche",
            "translation" : [
                9.538597623759415e-06,
                4.152382850646973,
                2.5038528442382812
            ]
        },
        {
            "mesh" : 7,
            "name" : "Poignees",
            "translation" : [
                -0.007493746932595968,
                8.773032188415527,
                0.9119677543640137
            ]
        },
        {
            "mesh" : 8,
            "name" : "Jante_avant",
            "translation" : [
                -0.007578616961836815,
                2.4937617778778076,
                3.1749043464660645
            ]
        },
        {
            "mesh" : 9,
            "name" : "Pneu_avant",
            "translation" : [
                0.04571276158094406,
                2.5344696044921875,
                3.0977394580841064
            ]
        }
    ],
    "materials" : [
        {
            "doubleSided" : true,
            "name" : "Kids_Toy_TrikeBikeRedMat",
            "pbrMetallicRoughness" : {}
        },
        {
            "doubleSided" : true,
            "name" : "Kids_Toy_TrikebikeBlackPlasticMat",
            "pbrMetallicRoughness" : {}
        },
        {
            "doubleSided" : true,
            "name" : "Kids_Toy_TrikebikeBlackMat",
            "pbrMetallicRoughness" : {}
        },
        {
            "doubleSided" : true,
            "name" : "Kids_Toy_TrikebikeWhiteMat",
            "pbrMetallicRoughness" : {}
        },
        {
            "doubleSided" : true,
            "name" : "Kids_Toy_TrikebikeTyreMat",
            "pbrMetallicRoughness" : {}
        }
    ],
    "meshes" : [
        {
            "name" : "0",
            "primitives" : [
                {
                    "attributes" : {
                        "POSITION" : 0,
                        "NORMAL" : 1,
                        "TEXCOORD_0" : 2
                    },
                    "indices" : 3,
                    "material" : 0
                }
            ]
        },
        {
            "name" : "1",
            "primitives" : [
                {
                    "attributes" : {
                        "POSITION" : 4,
                        "NORMAL" : 5,
                        "TEXCOORD_0" : 6
                    },
                    "indices" : 7,
                    "material" : 1
                }
            ]
        },
        {
            "name" : "2",
            "primitives" : [
                {
                    "attributes" : {
                        "POSITION" : 8,
                        "NORMAL" : 9,
                        "TEXCOORD_0" : 10
                    },
                    "indices" : 11,
                    "material" : 2
                }
            ]
        },
        {
            "name" : "3",
            "primitives" : [
                {
                    "attributes" : {
                        "POSITION" : 12,
                        "NORMAL" : 13,
                        "TEXCOORD_0" : 14
                    },
                    "indices" : 15,
                    "material" : 3
                }
            ]
        },
        {
            "name" : "4",
            "primitives" : [
                {
                    "attributes" : {
                        "POSITION" : 16,
                        "NORMAL" : 17,
                        "TEXCOORD_0" : 18
                    },
                    "indices" : 19,
                    "material" : 4
                }
            ]
        },
        {
            "name" : "3.001",
            "primitives" : [
                {
                    "attributes" : {
                        "POSITION" : 20,
                        "NORMAL" : 21,
                        "TEXCOORD_0" : 22
                    },
                    "indices" : 23,
                    "material" : 3
                }
            ]
        },
        {
            "name" : "0.001",
            "primitives" : [
                {
                    "attributes" : {
                        "POSITION" : 24,
                        "NORMAL" : 25,
                        "TEXCOORD_0" : 26
                    },
                    "indices" : 27,
                    "material" : 0
                }
            ]
        },
        {
            "name" : "1.001",
            "primitives" : [
                {
                    "attributes" : {
                        "POSITION" : 28,
                        "NORMAL" : 29,
                        "TEXCOORD_0" : 30
                    },
                    "indices" : 31,
                    "material" : 1
                }
            ]
        },
        {
            "name" : "3.002",
            "primitives" : [
                {
                    "attributes" : {
                        "POSITION" : 32,
                        "NORMAL" : 33,
                        "TEXCOORD_0" : 34
                    },
                    "indices" : 35,
                    "material" : 3
                }
            ]
        },
        {
            "name" : "4.001",
            "primitives" : [
                {
                    "attributes" : {
                        "POSITION" : 36,
                        "NORMAL" : 37,
                        "TEXCOORD_0" : 38
                    },
                    "indices" : 39,
                    "material" : 4
                }
            ]
        }
    ],
    "accessors" : [
        {
            "bufferView" : 0,
            "componentType" : 5126,
            "count" : 317,
            "max" : [
                2.2347753047943115,
                6.96994161605835,
                2.2840945720672607
            ],
            "min" : [
                -2.2347753047943115,
                1.4472146034240723,
                -3.1532325744628906
            ],
            "type" : "VEC3"
        },
        {
            "bufferView" : 1,
            "componentType" : 5126,
            "count" : 317,
            "type" : "VEC3"
        },
        {
            "bufferView" : 2,
            "componentType" : 5126,
            "count" : 317,
            "type" : "VEC2"
        },
        {
            "bufferView" : 3,
            "componentType" : 5123,
            "count" : 1464,
            "type" : "SCALAR"
        },
        {
            "bufferView" : 4,
            "componentType" : 5126,
            "count" : 151,
            "max" : [
                1.232820749282837,
                6.66303825378418,
                -0.4123235046863556
            ],
            "min" : [
                -1.2486011981964111,
                6.000011444091797,
                -3.0447049140930176
            ],
            "type" : "VEC3"
        },
        {
            "bufferView" : 5,
            "componentType" : 5126,
            "count" : 151,
            "type" : "VEC3"
        },
        {
            "bufferView" : 6,
            "componentType" : 5126,
            "count" : 151,
            "type" : "VEC2"
        },
        {
            "bufferView" : 7,
            "componentType" : 5123,
            "count" : 672,
            "type" : "SCALAR"
        },
        {
            "bufferView" : 8,
            "componentType" : 5126,
            "count" : 489,
            "max" : [
                0.38737961649894714,
                7.138114929199219,
                2.4114301204681396
            ],
            "min" : [
                -0.38737985491752625,
                5.2575297355651855,
                -1.943246603012085
            ],
            "type" : "VEC3"
        },
        {
            "bufferView" : 9,
            "componentType" : 5126,
            "count" : 489,
            "type" : "VEC3"
        },
        {
            "bufferView" : 10,
            "componentType" : 5126,
            "count" : 489,
            "type" : "VEC2"
        },
        {
            "bufferView" : 11,
            "componentType" : 5123,
            "count" : 2304,
            "type" : "SCALAR"
        },
        {
            "bufferView" : 12,
            "componentType" : 5126,
            "count" : 1846,
            "max" : [
                3.2132511138916016,
                2.716046094894409,
                -1.308275818824768
            ],
            "min" : [
                -3.251035213470459,
                0.5887112617492676,
                -3.435610771179199
            ],
            "type" : "VEC3"
        },
        {
            "bufferView" : 13,
            "componentType" : 5126,
            "count" : 1846,
            "type" : "VEC3"
        },
        {
            "bufferView" : 14,
            "componentType" : 5126,
            "count" : 1846,
            "type" : "VEC2"
        },
        {
            "bufferView" : 15,
            "componentType" : 5123,
            "count" : 10080,
            "type" : "SCALAR"
        },
        {
            "bufferView" : 16,
            "componentType" : 5126,
            "count" : 306,
            "max" : [
                3.0291476249694824,
                3.294635772705078,
                -0.7154497504234314
            ],
            "min" : [
                -3.0440845489501953,
                -0.008776112459599972,
                -4.018861770629883
            ],
            "type" : "VEC3"
        },
        {
            "bufferView" : 17,
            "componentType" : 5126,
            "count" : 306,
            "type" : "VEC3"
        },
        {
            "bufferView" : 18,
            "componentType" : 5126,
            "count" : 306,
            "type" : "VEC2"
        },
        {
            "bufferView" : 19,
            "componentType" : 5123,
            "count" : 1536,
            "type" : "SCALAR"
        },
        {
            "bufferView" : 20,
            "componentType" : 5126,
            "count" : 408,
            "max" : [
                2.308337688446045,
                0.9988551139831543,
                0.529728889465332
            ],
            "min" : [
                -2.3880152702331543,
                -1.0745549201965332,
                -0.46535658836364746
            ],
            "type" : "VEC3"
        },
        {
            "bufferView" : 21,
            "componentType" : 5126,
            "count" : 408,
            "type" : "VEC3"
        },
        {
            "bufferView" : 22,
            "componentType" : 5126,
            "count" : 408,
            "type" : "VEC2"
        },
        {
            "bufferView" : 23,
            "componentType" : 5123,
            "count" : 2112,
            "type" : "SCALAR"
        },
        {
            "bufferView" : 24,
            "componentType" : 5126,
            "count" : 225,
            "max" : [
                0.9962499737739563,
                1.337275505065918,
                0.8772883415222168
            ],
            "min" : [
                -0.9914418458938599,
                -1.9826059341430664,
                -0.7461607456207275
            ],
            "type" : "VEC3"
        },
        {
            "bufferView" : 25,
            "componentType" : 5126,
            "count" : 225,
            "type" : "VEC3"
        },
        {
            "bufferView" : 26,
            "componentType" : 5126,
            "count" : 225,
            "type" : "VEC2"
        },
        {
            "bufferView" : 27,
            "componentType" : 5123,
            "count" : 1152,
            "type" : "SCALAR"
        },
        {
            "bufferView" : 28,
            "componentType" : 5126,
            "count" : 438,
            "max" : [
                3.654442071914673,
                0.24844837188720703,
                0.2634165287017822
            ],
            "min" : [
                -3.638921022415161,
                -0.2648477554321289,
                -0.26694440841674805
            ],
            "type" : "VEC3"
        },
        {
            "bufferView" : 29,
            "componentType" : 5126,
            "count" : 438,
            "type" : "VEC3"
        },
        {
            "bufferView" : 30,
            "componentType" : 5126,
            "count" : 438,
            "type" : "VEC2"
        },
        {
            "bufferView" : 31,
            "componentType" : 5123,
            "count" : 1728,
            "type" : "SCALAR"
        },
        {
            "bufferView" : 32,
            "componentType" : 5126,
            "count" : 923,
            "max" : [
                0.7927465438842773,
                1.5404794216156006,
                1.555701732635498
            ],
            "min" : [
                -0.7937389016151428,
                -1.6276127099990845,
                -1.6144654750823975
            ],
            "type" : "VEC3"
        },
        {
            "bufferView" : 33,
            "componentType" : 5126,
            "count" : 923,
            "type" : "VEC3"
        },
        {
            "bufferView" : 34,
            "componentType" : 5126,
            "count" : 923,
            "type" : "VEC2"
        },
        {
            "bufferView" : 35,
            "componentType" : 5123,
            "count" : 5040,
            "type" : "SCALAR"
        },
        {
            "bufferView" : 36,
            "componentType" : 5126,
            "count" : 153,
            "max" : [
                0.4402714669704437,
                2.3075218200683594,
                2.460909605026245
            ],
            "min" : [
                -0.5486282110214233,
                -2.4913971424102783,
                -2.3379809856414795
            ],
            "type" : "VEC3"
        },
        {
            "bufferView" : 37,
            "componentType" : 5126,
            "count" : 153,
            "type" : "VEC3"
        },
        {
            "bufferView" : 38,
            "componentType" : 5126,
            "count" : 153,
            "type" : "VEC2"
        },
        {
            "bufferView" : 39,
            "componentType" : 5123,
            "count" : 768,
            "type" : "SCALAR"
        }
    ],
    "bufferViews" : [
        {
            "buffer" : 0,
            "byteLength" : 3804,
            "byteOffset" : 0
        },
        {
            "buffer" : 0,
            "byteLength" : 3804,
            "byteOffset" : 3804
        },
        {
            "buffer" : 0,
            "byteLength" : 2536,
            "byteOffset" : 7608
        },
        {
            "buffer" : 0,
            "byteLength" : 2928,
            "byteOffset" : 10144
        },
        {
            "buffer" : 0,
            "byteLength" : 1812,
            "byteOffset" : 13072
        },
        {
            "buffer" : 0,
            "byteLength" : 1812,
            "byteOffset" : 14884
        },
        {
            "buffer" : 0,
            "byteLength" : 1208,
            "byteOffset" : 16696
        },
        {
            "buffer" : 0,
            "byteLength" : 1344,
            "byteOffset" : 17904
        },
        {
            "buffer" : 0,
            "byteLength" : 5868,
            "byteOffset" : 19248
        },
        {
            "buffer" : 0,
            "byteLength" : 5868,
            "byteOffset" : 25116
        },
        {
            "buffer" : 0,
            "byteLength" : 3912,
            "byteOffset" : 30984
        },
        {
            "buffer" : 0,
            "byteLength" : 4608,
            "byteOffset" : 34896
        },
        {
            "buffer" : 0,
            "byteLength" : 22152,
            "byteOffset" : 39504
        },
        {
            "buffer" : 0,
            "byteLength" : 22152,
            "byteOffset" : 61656
        },
        {
            "buffer" : 0,
            "byteLength" : 14768,
            "byteOffset" : 83808
        },
        {
            "buffer" : 0,
            "byteLength" : 20160,
            "byteOffset" : 98576
        },
        {
            "buffer" : 0,
            "byteLength" : 3672,
            "byteOffset" : 118736
        },
        {
            "buffer" : 0,
            "byteLength" : 3672,
            "byteOffset" : 122408
        },
        {
            "buffer" : 0,
            "byteLength" : 2448,
            "byteOffset" : 126080
        },
        {
            "buffer" : 0,
            "byteLength" : 3072,
            "byteOffset" : 128528
        },
        {
            "buffer" : 0,
            "byteLength" : 4896,
            "byteOffset" : 131600
        },
        {
            "buffer" : 0,
            "byteLength" : 4896,
            "byteOffset" : 136496
        },
        {
            "buffer" : 0,
            "byteLength" : 3264,
            "byteOffset" : 141392
        },
        {
            "buffer" : 0,
            "byteLength" : 4224,
            "byteOffset" : 144656
        },
        {
            "buffer" : 0,
            "byteLength" : 2700,
            "byteOffset" : 148880
        },
        {
            "buffer" : 0,
            "byteLength" : 2700,
            "byteOffset" : 151580
        },
        {
            "buffer" : 0,
            "byteLength" : 1800,
            "byteOffset" : 154280
        },
        {
            "buffer" : 0,
            "byteLength" : 2304,
            "byteOffset" : 156080
        },
        {
            "buffer" : 0,
            "byteLength" : 5256,
            "byteOffset" : 158384
        },
        {
            "buffer" : 0,
            "byteLength" : 5256,
            "byteOffset" : 163640
        },
        {
            "buffer" : 0,
            "byteLength" : 3504,
            "byteOffset" : 168896
        },
        {
            "buffer" : 0,
            "byteLength" : 3456,
            "byteOffset" : 172400
        },
        {
            "buffer" : 0,
            "byteLength" : 11076,
            "byteOffset" : 175856
        },
        {
            "buffer" : 0,
            "byteLength" : 11076,
            "byteOffset" : 186932
        },
        {
            "buffer" : 0,
            "byteLength" : 7384,
            "byteOffset" : 198008
        },
        {
            "buffer" : 0,
            "byteLength" : 10080,
            "byteOffset" : 205392
        },
        {
            "buffer" : 0,
            "byteLength" : 1836,
            "byteOffset" : 215472
        },
        {
            "buffer" : 0,
            "byteLength" : 1836,
            "byteOffset" : 217308
        },
        {
            "buffer" : 0,
            "byteLength" : 1224,
            "byteOffset" : 219144
        },
        {
            "buffer" : 0,
            "byteLength" : 1536,
            "byteOffset" : 220368
        }
    ],
    "buffers" : [
        {
            "byteLength" : 221904,
            "uri" : "data:application/octet-stream;base64,"
        }
    ]
}
