{
  "accessors": [
    {
      "bufferView": 3,
      "componentType": 5126,
      "count": 542,
      "max": [
        2.2347753047943115,
        6.96994161605835,
        3.381140947341919
      ],
      "min": [
        -2.2347753047943115,
        1.4472146034240723,
        -3.1532325744628906
      ],
      "type": "VEC3"
    },
    {
      "bufferView": 3,
      "byteOffset": 6504,
      "componentType": 5126,
      "count": 542,
      "max": [
        1.0,
        1.0,
        0.9999540448188782
      ],
      "min": [
        -1.0,
        -0.9935208559036255,
        -0.9999540448188782
      ],
      "type": "VEC3"
    },
    {
      "bufferView": 2,
      "componentType": 5126,
      "count": 542,
      "max": [
        1.0,
        1.0
      ],
      "min": [
        0.0,
        0.0
      ],
      "type": "VEC2"
    },
    {
      "bufferView": 1,
      "componentType": 5125,
      "count": 2616,
      "type": "SCALAR"
    },
    {
      "bufferView": 3,
      "byteOffset": 13008,
      "componentType": 5126,
      "count": 589,
      "max": [
        3.6469483375549316,
        9.021480560302734,
        1.1753838062286377
      ],
      "min": [
        -3.6464147567749023,
        6.000011920928955,
        -3.0447049140930176
      ],
      "type": "VEC3"
    },
    {
      "bufferView": 3,
      "byteOffset": 20076,
      "componentType": 5126,
      "count": 589,
      "max": [
        0.9996345043182373,
        0.9999916553497314,
        0.999773383140564
      ],
      "min": [
        -0.9996345043182373,
        -0.9997490048408508,
        -0.9997692704200745
      ],
      "type": "VEC3"
    },
    {
      "bufferView": 2,
      "byteOffset": 4336,
      "componentType": 5126,
      "count": 589,
      "max": [
        1.0,
        1.0
      ],
      "min": [
        0.0,
        0.0
      ],
      "type": "VEC2"
    },
    {
      "bufferView": 1,
      "byteOffset": 10464,
      "componentType": 5125,
      "count": 2400,
      "type": "SCALAR"
    },
    {
      "bufferView": 3,
      "byteOffset": 27144,
      "componentType": 5126,
      "count": 489,
      "max": [
        0.3873797357082367,
        7.138114929199219,
        2.4114298820495605
      ],
      "min": [
        -0.3873797357082367,
        5.2575297355651855,
        -1.943246841430664
      ],
      "type": "VEC3"
    },
    {
      "bufferView": 3,
      "byteOffset": 33012,
      "componentType": 5126,
      "count": 489,
      "max": [
        1.0,
        0.9845873117446899,
        0.9931102395057678
      ],
      "min": [
        -1.0,
        -0.9845872521400452,
        -0.993110179901123
      ],
      "type": "VEC3"
    },
    {
      "bufferView": 2,
      "byteOffset": 9048,
      "componentType": 5126,
      "count": 489,
      "max": [
        1.0,
        1.0
      ],
      "min": [
        0.0,
        0.0
      ],
      "type": "VEC2"
    },
    {
      "bufferView": 1,
      "byteOffset": 20064,
      "componentType": 5125,
      "count": 2304,
      "type": "SCALAR"
    },
    {
      "bufferView": 3,
      "byteOffset": 38880,
      "componentType": 5126,
      "count": 3177,
      "max": [
        3.2132511138916016,
        8.9564790725708,
        4.7306060791015625
      ],
      "min": [
        -3.251035213470459,
        0.5887113809585571,
        -3.435610294342041
      ],
      "type": "VEC3"
    },
    {
      "bufferView": 3,
      "byteOffset": 77004,
      "componentType": 5126,
      "count": 3177,
      "max": [
        1.0,
        0.998134434223175,
        0.9983793497085571
      ],
      "min": [
        -1.0,
        -0.9987894892692566,
        -0.9979198575019836
      ],
      "type": "VEC3"
    },
    {
      "bufferView": 2,
      "byteOffset": 12960,
      "componentType": 5126,
      "count": 3177,
      "max": [
        1.0,
        1.0
      ],
      "min": [
        0.0,
        0.0
      ],
      "type": "VEC2"
    },
    {
      "bufferView": 1,
      "byteOffset": 29280,
      "componentType": 5125,
      "count": 17232,
      "type": "SCALAR"
    },
    {
      "bufferView": 3,
      "byteOffset": 115128,
      "componentType": 5126,
      "count": 459,
      "max": [
        3.0291476249694824,
        4.841991901397705,
        5.558649063110352
      ],
      "min": [
        -3.0440845489501953,
        -0.008775993250310421,
        -4.018861293792725
      ],
      "type": "VEC3"
    },
    {
      "bufferView": 3,
      "byteOffset": 120636,
      "componentType": 5126,
      "count": 459,
      "max": [
        0.9968035817146301,
        1.0,
        1.0
      ],
      "min": [
        -0.9968035221099854,
        -1.0,
        -1.0
      ],
      "type": "VEC3"
    },
    {
      "bufferView": 2,
      "byteOffset": 38376,
      "componentType": 5126,
      "count": 459,
      "max": [
        1.0,
        1.0
      ],
      "min": [
        0.0,
        0.0
      ],
      "type": "VEC2"
    },
    {
      "bufferView": 1,
      "byteOffset": 98208,
      "componentType": 5125,
      "count": 2304,
      "type": "SCALAR"
    },
    {
      "bufferView": 5,
      "componentType": 5126,
      "count": 9,
      "max": [
        1.0,
        0.06233726441860199,
        0.9979943633079529,
        0.0,
        0.9563946723937988,
        1.0,
        1.1102230246251565e-16,
        0.0,
        0.942933976650238,
        0.9543918967247009,
        1.0,
        0.0,
        2.7152414321899414,
        0.0,
        2.3719429969787598,
        1.0
      ],
      "min": [
        -0.01101501751691103,
        -1.2724059053435951e-15,
        -1.0,
        0.0,
        -1.919317298409301e-13,
        0.29197633266448975,
        -0.007681709248572588,
        0.0,
        -0.2918696105480194,
        -0.3329797089099884,
        -0.06283515691757202,
        0.0,
        -5.476841926574707,
        -6.175009727478027,
        0.0,
        1.0
      ],
      "type": "MAT4"
    },
    {
      "bufferView": 0,
      "componentType": 5123,
      "count": 542,
      "type": "VEC4"
    },
    {
      "bufferView": 4,
      "componentType": 5126,
      "count": 542,
      "max": [
        1.0,
        0.0,
        0.0,
        0.0
      ],
      "min": [
        1.0,
        0.0,
        0.0,
        0.0
      ],
      "type": "VEC4"
    },
    {
      "bufferView": 0,
      "byteOffset": 4336,
      "componentType": 5123,
      "count": 589,
      "type": "VEC4"
    },
    {
      "bufferView": 4,
      "byteOffset": 8672,
      "componentType": 5126,
      "count": 589,
      "max": [
        1.0,
        0.0,
        0.0,
        0.0
      ],
      "min": [
        1.0,
        0.0,
        0.0,
        0.0
      ],
      "type": "VEC4"
    },
    {
      "bufferView": 0,
      "byteOffset": 9048,
      "componentType": 5123,
      "count": 489,
      "type": "VEC4"
    },
    {
      "bufferView": 4,
      "byteOffset": 18096,
      "componentType": 5126,
      "count": 489,
      "max": [
        1.0,
        0.0,
        0.0,
        0.0
      ],
      "min": [
        1.0,
        0.0,
        0.0,
        0.0
      ],
      "type": "VEC4"
    },
    {
      "bufferView": 0,
      "byteOffset": 12960,
      "componentType": 5123,
      "count": 3177,
      "type": "VEC4"
    },
    {
      "bufferView": 4,
      "byteOffset": 25920,
      "componentType": 5126,
      "count": 3177,
      "max": [
        1.0,
        0.0,
        0.0,
        0.0
      ],
      "min": [
        1.0,
        0.0,
        0.0,
        0.0
      ],
      "type": "VEC4"
    },
    {
      "bufferView": 0,
      "byteOffset": 38376,
      "componentType": 5123,
      "count": 459,
      "type": "VEC4"
    },
    {
      "bufferView": 4,
      "byteOffset": 76752,
      "componentType": 5126,
      "count": 459,
      "max": [
        1.0,
        0.0,
        0.0,
        0.0
      ],
      "min": [
        1.0,
        0.0,
        0.0,
        0.0
      ],
      "type": "VEC4"
    }
  ],
  "asset": {
    "extras": {
      "author": "Bryan Teng (https://sketchfab.com/lazybryan)",
      "license": "CC-BY-4.0 (http://creativecommons.org/licenses/by/4.0/)",
      "source": "https://sketchfab.com/3d-models/tricycle-rig-1952a53b7f3745dab39c7175d49f204d",
      "title": "Tricycle Rig"
    },
    "generator": "Sketchfab-12.66.0",
    "version": "2.0"
  },
  "bufferViews": [
    {
      "buffer": 0,
      "byteLength": 42048,
      "byteStride": 8,
      "name": "shortBufferViews",
      "target": 34962
    },
    {
      "buffer": 0,
      "byteLength": 107424,
      "byteOffset": 42048,
      "name": "floatBufferViews",
      "target": 34963
    },
    {
      "buffer": 0,
      "byteLength": 42048,
      "byteOffset": 149472,
      "byteStride": 8,
      "name": "floatBufferViews",
      "target": 34962
    },
    {
      "buffer": 0,
      "byteLength": 126144,
      "byteOffset": 191520,
      "byteStride": 12,
      "name": "floatBufferViews",
      "target": 34962
    },
    {
      "buffer": 0,
      "byteLength": 84096,
      "byteOffset": 317664,
      "byteStride": 16,
      "name": "floatBufferViews",
      "target": 34962
    },
    {
      "buffer": 0,
      "byteLength": 576,
      "byteOffset": 401760,
      "name": "floatBufferViews"
    }
  ],
  "buffers": [
    {
      "byteLength": 402336,
      "uri": "scene.bin"
    }
  ],
  "extensionsRequired": [
    "KHR_materials_pbrSpecularGlossiness"
  ],
  "extensionsUsed": [
    "KHR_materials_pbrSpecularGlossiness"
  ],
  "materials": [
    {
      "doubleSided": true,
      "extensions": {
        "KHR_materials_pbrSpecularGlossiness": {
          "diffuseFactor": [
            0.858,
            0.24180399999999994,
            0.16473600000000005,
            1.0
          ],
          "glossinessFactor": 0.15932004941916986,
          "specularFactor": [
            0.0,
            0.0,
            0.0
          ]
        }
      },
      "name": "Kids_Toy_TrikeBikeRedMat"
    },
    {
      "doubleSided": true,
      "extensions": {
        "KHR_materials_pbrSpecularGlossiness": {
          "diffuseFactor": [
            0.083,
            0.083,
            0.083,
            1.0
          ],
          "glossinessFactor": 0.04941770461892957,
          "specularFactor": [
            0.0,
            0.0,
            0.0
          ]
        }
      },
      "name": "Kids_Toy_TrikebikeBlackPlasticMat"
    },
    {
      "doubleSided": true,
      "extensions": {
        "KHR_materials_pbrSpecularGlossiness": {
          "diffuseFactor": [
            0.0,
            0.0,
            0.0,
            1.0
          ],
          "glossinessFactor": 0.2,
          "specularFactor": [
            0.0,
            0.0,
            0.0
          ]
        }
      },
      "name": "Kids_Toy_TrikebikeBlackMat"
    },
    {
      "doubleSided": true,
      "extensions": {
        "KHR_materials_pbrSpecularGlossiness": {
          "diffuseFactor": [
            1.0,
            1.0,
            1.0,
            1.0
          ],
          "glossinessFactor": 0.06807027131823702,
          "specularFactor": [
            0.0,
            0.0,
            0.0
          ]
        }
      },
      "name": "Kids_Toy_TrikebikeWhiteMat"
    },
    {
      "doubleSided": true,
      "extensions": {
        "KHR_materials_pbrSpecularGlossiness": {
          "diffuseFactor": [
            0.083,
            0.083,
            0.083,
            1.0
          ],
          "glossinessFactor": 0.04941770461892957,
          "specularFactor": [
            0.0,
            0.0,
            0.0
          ]
        }
      },
      "name": "Kids_Toy_TrikebikeTyreMat"
    }
  ],
  "meshes": [
    {
      "name": "0",
      "primitives": [
        {
          "attributes": {
            "JOINTS_0": 21,
            "NORMAL": 1,
            "POSITION": 0,
            "TEXCOORD_0": 2,
            "WEIGHTS_0": 22
          },
          "indices": 3,
          "material": 0,
          "mode": 4
        }
      ]
    },
    {
      "name": "1",
      "primitives": [
        {
          "attributes": {
            "JOINTS_0": 23,
            "NORMAL": 5,
            "POSITION": 4,
            "TEXCOORD_0": 6,
            "WEIGHTS_0": 24
          },
          "indices": 7,
          "material": 1,
          "mode": 4
        }
      ]
    },
    {
      "name": "2",
      "primitives": [
        {
          "attributes": {
            "JOINTS_0": 25,
            "NORMAL": 9,
            "POSITION": 8,
            "TEXCOORD_0": 10,
            "WEIGHTS_0": 26
          },
          "indices": 11,
          "material": 2,
          "mode": 4
        }
      ]
    },
    {
      "name": "3",
      "primitives": [
        {
          "attributes": {
            "JOINTS_0": 27,
            "NORMAL": 13,
            "POSITION": 12,
            "TEXCOORD_0": 14,
            "WEIGHTS_0": 28
          },
          "indices": 15,
          "material": 3,
          "mode": 4
        }
      ]
    },
    {
      "name": "4",
      "primitives": [
        {
          "attributes": {
            "JOINTS_0": 29,
            "NORMAL": 17,
            "POSITION": 16,
            "TEXCOORD_0": 18,
            "WEIGHTS_0": 30
          },
          "indices": 19,
          "material": 4,
          "mode": 4
        }
      ]
    }
  ],
  "nodes": [
    {
      "children": [
        1
      ],
      "matrix": [
        1.0,
        0.0,
        0.0,
        0.0,
        0.0,
        2.220446049250313e-16,
        -1.0,
        0.0,
        0.0,
        1.0,
        2.220446049250313e-16,
        0.0,
        0.0,
        0.0,
        0.0,
        1.0
      ],
      "name": "Sketchfab_model"
    },
    {
      "children": [
        2
      ],
      "matrix": [
        1.0,
        0.0,
        0.0,
        0.0,
        0.0,
        0.0,
        1.0,
        0.0,
        0.0,
        -1.0,
        0.0,
        0.0,
        0.0,
        0.0,
        0.0,
        1.0
      ],
      "name": "bbd21fe00e6647f2890470bde36fa60e.fbx"
    },
    {
      "children": [
        3
      ],
      "name": "RootNode"
    },
    {
      "children": [
        4,
        6,
        7,
        8,
        9,
        10,
        5
      ],
      "name": "Object_3"
    },
    {
      "children": [
        11
      ],
      "name": "_rootJoint"
    },
    {
      "matrix": [
        1.0,
        0.0,
        -1.232595164407831e-32,
        0.0,
        6.842277657836008e-49,
        1.0,
        5.551115123125772e-17,
        0.0,
        1.232595164407831e-32,
        -5.551115123125772e-17,
        1.0,
        0.0,
        0.0,
        8.881784197001252e-16,
        -2.220446049250313e-16,
        1.0
      ],
      "name": "Object_5"
    },
    {
      "mesh": 0,
      "name": "Object_6",
      "skin": 0
    },
    {
      "mesh": 1,
      "name": "Object_7",
      "skin": 0
    },
    {
      "mesh": 2,
      "name": "Object_8",
      "skin": 0
    },
    {
      "mesh": 3,
      "name": "Object_9",
      "skin": 0
    },
    {
      "mesh": 4,
      "name": "Object_10",
      "skin": 0
    },
    {
      "children": [
        12,
        15,
        16
      ],
      "name": "COG_00",
      "rotation": [
        -0.11944246292114258,
        -0.69694584608078,
        0.11944246292114258,
        0.69694584608078
      ],
      "translation": [
        2.42861286636753e-17,
        5.148190498352051,
        -1.4005454778671265
      ]
    },
    {
      "children": [
        13,
        14
      ],
      "name": "front_J_01",
      "rotation": [
        0.7220385670661926,
        0.691595733165741,
        -0.008498694747686386,
        -0.016836272552609444
      ],
      "translation": [
        3.338172674179077,
        8.881784197001252e-16,
        -1.1188687957968996e-15
      ]
    },
    {
      "name": "handle_J_02",
      "rotation": [
        0.02388313040137291,
        0.9995641112327576,
        -0.01647227071225643,
        0.005463987123221159
      ],
      "translation": [
        0.7163162231445313,
        -8.881784197001252e-16,
        -1.5265566588595902e-16
      ]
    },
    {
      "name": "frontwheel_J_03",
      "rotation": [
        0.013151264749467373,
        -2.493523648093587e-16,
        -2.80027610054614e-15,
        0.9999135136604309
      ],
      "translation": [
        -4.052380561828613,
        0.22467093169689178,
        -0.0700557753443718
      ]
    },
    {
      "name": "seat_J_04",
      "rotation": [
        0.11944246292114258,
        0.69694584608078,
        -0.11944246292114258,
        0.69694584608078
      ],
      "translation": [
        -0.021623920649290085,
        1.0965981483459473,
        1.1822804562612588e-14
      ]
    },
    {
      "children": [
        17,
        18
      ],
      "name": "back_J_05",
      "rotation": [
        0.119491346180439,
        0.6969375014305115,
        -0.11939361691474915,
        0.6969542503356934
      ],
      "translation": [
        -2.0801241397857666,
        -2.9732210636138916,
        1.669993853422344e-15
      ]
    },
    {
      "name": "leftwheel_J_06",
      "rotation": [
        3.4567705838403686e-36,
        4.930380657631324e-32,
        -7.011163688730448e-05,
        1.0
      ],
      "translation": [
        2.700538396835327,
        2.220446049250313e-16,
        4.440892098500626e-16
      ]
    },
    {
      "name": "rightwheel_J_07",
      "rotation": [
        3.4567705838403686e-36,
        4.930380657631324e-32,
        -7.011163688730448e-05,
        1.0
      ],
      "translation": [
        -2.7152414321899414,
        0.0007594183553010225,
        8.881784197001252e-16
      ]
    }
  ],
  "scene": 0,
  "scenes": [
    {
      "name": "Sketchfab_Scene",
      "nodes": [
        0
      ]
    }
  ],
  "skins": [
    {
      "inverseBindMatrices": 20,
      "joints": [
        4,
        11,
        12,
        13,
        14,
        15,
        16,
        17,
        18
      ],
      "skeleton": 4
    }
  ]
}
